<svg xmlns="http://www.w3.org/2000/svg" viewBox="0 0 64 64" role="img" aria-label="Neonatal GIR Calculator">
<defs>
 <linearGradient id="bg" x1="10" y1="6" x2="56" y2="60" gradientUnits="userSpaceOnUse"><stop stop-color="#eef5ff"/><stop offset="1" stop-color="#dbeafe"/></linearGradient>
 <linearGradient id="drop" x1="18" y1="10" x2="48" y2="56" gradientUnits="userSpaceOnUse"><stop stop-color="#60a5fa"/><stop offset=".48" stop-color="#2563eb"/><stop offset="1" stop-color="#1e40af"/></linearGradient>
</defs>
<rect width="64" height="64" rx="16" fill="url(#bg)"/>
<path d="M32 7.5C32 7.5 14 28.8 14 40.2 14 50.2 21.9 57 32 57s18-6.8 18-16.8C50 28.8 32 7.5 32 7.5Z" fill="url(#drop)"/>
<path d="M25.2 23.1c-3.5 4.8-6.4 9.3-7.1 13.1" fill="none" stroke="#fff" stroke-width="3" stroke-linecap="round" opacity=".8"/>
<path d="M22.3 43.2c1.9 6 6.1 9.2 11.7 9.2 4.6 0 8.4-2.1 10.9-6.1-2.5 5.8-7 8.9-12.6 8.9-6.5 0-11.7-4.2-12.7-10.2.9.2 1.8.1 2.7-.1Z" fill="#bfdbfe" opacity=".8"/>
</svg>